<svg xmlns="http://www.w3.org/2000/svg" viewBox="0 0 16.29 24"><defs><style>.cls-1{fill:#f2aa1f;}</style></defs><title>Ubicación</title><g id="Capa_2" data-name="Capa 2"><g id="Object"><path class="cls-1" d="M12,7.16a1,1,0,0,0,0-.17l0-.12,0-.14,0-.11-.06-.16,0-.12,0-.08-.1-.21,0-.08s0,0,0,0l-.15-.26,0,0c-.08-.11-.14-.2-.21-.28l0,0-.24-.26,0,0a3.86,3.86,0,0,0-2.7-1.13H8.12a3.88,3.88,0,1,0,0,7.76h.05a3.87,3.87,0,0,0,2.72-1.15l.24-.27,0,0a2.48,2.48,0,0,0,.19-.26.23.23,0,0,0,.05-.07l.15-.25,0,0,0-.06v0c0-.07.07-.14.1-.2a.25.25,0,0,0,0-.07l0-.13.06-.16,0-.11,0-.14a.53.53,0,0,0,0-.12,1,1,0,0,0,0-.17l0-.14s0-.05,0-.07a2.75,2.75,0,0,0,0-.4,2.68,2.68,0,0,0,0-.4s0,0,0-.07Z"/><path class="cls-1" d="M14.91,12.85l.14-.21,0,0c.1-.19.26-.47.27-.48a8.7,8.7,0,0,0,.95-4c0-.15,0-.3,0-.45a1.28,1.28,0,0,0,0-.19V7.27a1,1,0,0,1,0-.16V7c0-.06,0-.11,0-.16s0-.09,0-.13l0-.11,0-.18,0-.14,0-.13,0-.14a1.8,1.8,0,0,0,0-.19l0-.1a.43.43,0,0,0,0-.11l-.06-.2,0-.08,0-.1c0-.07-.05-.13-.07-.2l0-.09a.36.36,0,0,0,0-.09,1.28,1.28,0,0,0-.09-.22l0-.08,0-.07c0-.09-.09-.19-.14-.28l0-.07-.16-.3,0,0L15,3.49v0l-.2-.29,0,0c-.07-.1-.15-.19-.22-.28v0l-.25-.29L14,2.27h0A8.08,8.08,0,0,0,8.15,0,7.8,7.8,0,0,0,0,8.15a8.69,8.69,0,0,0,1.1,4.23l.12.23v0l.21.32.05.08,5.22,8.76h0l1.21,2a.37.37,0,0,0,.31.18h0a.35.35,0,0,0,.31-.18l1.18-2h0l5.08-8.74A2.12,2.12,0,0,0,14.91,12.85Zm-2.2-4.61a.69.69,0,0,1,0,.13v.1a1.85,1.85,0,0,1,0,.23.94.94,0,0,1,0,.16l0,.12s0,.1,0,.15l-.07.21,0,.1-.05.12a2.56,2.56,0,0,1-.11.24l0,.07a.36.36,0,0,1,0,.09,1.75,1.75,0,0,1-.18.29.28.28,0,0,1-.05.08,3.46,3.46,0,0,1-.22.31l0,0a4,4,0,0,1-.28.32,4.56,4.56,0,0,1-3.24,1.37h0a4.61,4.61,0,0,1,0-9.22h0A4.54,4.54,0,0,1,11.4,4.53l0,0a3.65,3.65,0,0,1,.27.3l0,0a3.19,3.19,0,0,1,.23.32.1.1,0,0,1,0,0,3,3,0,0,1,.19.32.36.36,0,0,1,0,.09l0,0c0,.11.1.19.13.28l.05.12,0,.1c0,.07,0,.14.07.21s0,.1,0,.15l0,.12a.85.85,0,0,1,0,.17,1.55,1.55,0,0,1,0,.21v.11a.69.69,0,0,1,0,.13,3.7,3.7,0,0,1,0,.47A3.7,3.7,0,0,1,12.71,8.24Z"/></g></g></svg>